# xmcd
#
# Track frame offsets:
#	150
#	12496
#	31477
#	54261
#	66323
#
# Disc length: 1104 seconds
#
# Revision: 0
# Processed by: cddbd v1.5.2PL0 Copyright (c) Steve Scherf et al.
# Submitted via: EasyCDDAExtractor 2010.4.0.0
#
DISCID=3d044e05
DTITLE=Jimi Beavis - No Need To Deny It
DYEAR=2011
DGENRE=Blues
TTITLE0=Are You Leaving Me?
TTITLE1=Ain't Afraid Of Crying
TTITLE2=Heaven Or Hell
TTITLE3=My Head Hurts From Crying
TTITLE4=I'm Sorry
EXTD=
EXTT0=
EXTT1=
EXTT2=
EXTT3=
EXTT4=
PLAYORDER=
